<?xml version="1.0" encoding="UTF-8" standalone="no"?>
<svg
   viewBox="0 0 633.04 126.61"
   version="1.1"
   id="svg30"
   sodipodi:docname="binance.svg"
   inkscape:version="1.1 (c68e22c387, 2021-05-23)"
   inkscape:export-filename="C:\Users\aleqs\Downloads\binance.svg"
   inkscape:export-xdpi="31.591806"
   inkscape:export-ydpi="31.591806"
   xmlns:inkscape="http://www.inkscape.org/namespaces/inkscape"
   xmlns:sodipodi="http://sodipodi.sourceforge.net/DTD/sodipodi-0.dtd"
   xmlns="http://www.w3.org/2000/svg"
   xmlns:svg="http://www.w3.org/2000/svg">
  <defs
     id="defs34" />
  <sodipodi:namedview
     id="namedview32"
     pagecolor="#ffffff"
     bordercolor="#666666"
     borderopacity="1.0"
     inkscape:pageshadow="2"
     inkscape:pageopacity="0.0"
     inkscape:pagecheckerboard="true"
     showgrid="false"
     inkscape:zoom="1.0102048"
     inkscape:cx="219.75743"
     inkscape:cy="81.666612"
     inkscape:window-width="1920"
     inkscape:window-height="991"
     inkscape:window-x="-9"
     inkscape:window-y="-9"
     inkscape:window-maximized="1"
     inkscape:current-layer="g26" />
  <g
     fill="#f3ba2f"
     id="g28">
    <path
       d="m38.72 53.2 24.59-24.58 24.6 24.6 14.3-14.31-38.9-38.91-38.9 38.9z"
       id="path2" />
    <path
       d="m3.64 53.19h20.23v20.23h-20.23z"
       transform="matrix(.70710678 -.70710678 .70710678 .70710678 -40.19 28.27)"
       id="path4" />
    <path
       d="m38.72 73.41 24.59 24.59 24.6-24.6 14.31 14.29-.01.01-38.9 38.91-38.9-38.89-.02-.02z"
       id="path6" />
    <path
       d="m101.64 53.19h20.23v20.23h-20.23z"
       transform="matrix(.70710678 -.70710678 .70710678 .70710678 -11.49 97.57)"
       id="path8" />
    <path
       d="m77.82 63.3-14.51-14.52-10.73 10.73-1.24 1.23-2.54 2.54-.02.02.02.03 14.51 14.5 14.51-14.52.01-.01z"
       id="path10" />
    <g
       transform="translate(.55)"
       id="g26">
      <path
         d="m 148.37,0.9830503 h 31.12 q 11.58,0 17.52,6 A 15.5,15.5 0 0 1 201.6,18.30305 v 0.19 a 16.67,16.67 0 0 1 -0.71,5.08 15.6,15.6 0 0 1 -1.91,4 14.77,14.77 0 0 1 -2.76,3.12 17.92,17.92 0 0 1 -3.39,2.3 22.66,22.66 0 0 1 9.17,6 q 3.34,3.8 3.34,10.5 v 0.19 a 17.44,17.44 0 0 1 -1.77,8.06 15.72,15.72 0 0 1 -5.07,5.76 24.05,24.05 0 0 1 -7.95,3.45 42.7,42.7 0 0 1 -10.29,1.15 h -31.89 z m 28,27.1399997 a 15.39,15.39 0 0 0 7.77,-1.68 5.8,5.8 0 0 0 2.86,-5.42 v -0.19 a 5.93,5.93 0 0 0 -2.49,-5.13 q -2.49,-1.77 -7.19,-1.77 h -14.56 v 14.19 z m 3.93,27.05 a 14.2,14.2 0 0 0 7.7,-1.77 6.08,6.08 0 0 0 2.78,-5.52 v -0.19 a 6.31,6.31 0 0 0 -2.59,-5.32 q -2.58,-2 -8.34,-2 h -17.09 v 14.8 z"
         id="path12" />
      <path
         d="m 223.88,0.9830503 h 14.77 V 68.12305 h -14.77 z"
         id="path14" />
      <path
         d="m 261,0.9830503 h 13.62 L 306.1,42.30305 V 0.9830503 h 14.58 V 68.12305 h -12.57 l -32.51,-42.68 v 42.68 H 261 Z"
         id="path16" />
      <path
         d="M 365.4,0.5030503 H 379 L 407.77,68.12305 h -15.42 l -6.14,-15.06 h -28.39 l -6.14,15.06 h -15.06 z m 15.54,39.5199997 -8.94,-21.78 -8.9,21.78 z"
         id="path18" />
      <path
         d="m 423.74,0.9830503 h 13.62 L 468.82,42.30305 V 0.9830503 H 483.4 V 68.12305 h -12.57 l -32.51,-42.68 v 42.68 h -14.58 z"
         id="path20" />
      <path
         d="m 536.56,69.30305 a 34.93,34.93 0 0 1 -13.72,-2.68 33.17,33.17 0 0 1 -18.13,-18.32 35.54,35.54 0 0 1 -2.59,-13.53 v -0.19 a 34.84,34.84 0 0 1 9.79,-24.51 33.23,33.23 0 0 1 11,-7.4799997 35.9,35.9 0 0 1 14.19,-2.73 44.49,44.49 0 0 1 8.58,0.77 35.66,35.66 0 0 1 7.06,2.11 30.5,30.5 0 0 1 5.85,3.26 39.52,39.52 0 0 1 5,4.2199997 l -9.39,10.84 a 35.71,35.71 0 0 0 -8,-5.57 20.47,20.47 0 0 0 -9.16,-2 18.58,18.58 0 0 0 -14,6.14 21.09,21.09 0 0 0 -4.04,6.67 22.87,22.87 0 0 0 -1.43,8.11 v 0.19 a 23.21,23.21 0 0 0 1.43,8.1 21.32,21.32 0 0 0 4,6.71 18.46,18.46 0 0 0 14,6.24 20.52,20.52 0 0 0 9.73,-2.11 37.62,37.62 0 0 0 7.91,-5.76 l 9.4,9.5 a 47.93,47.93 0 0 1 -5.37,5 32,32 0 0 1 -6.09,3.79 31.56,31.56 0 0 1 -7.24,2.39 43.11,43.11 0 0 1 -8.78,0.84 z"
         id="path22" />
      <path
         d="M 581.47,0.9830503 H 632 V 14.12305 h -36 v 13.62 h 31.7 v 13.14 h -31.65 v 14.1 h 36.45 v 13.14 h -51 z"
         id="path24" />
      <text
         xml:space="preserve"
         style="font-style:normal;font-variant:normal;font-weight:normal;font-stretch:normal;font-size:64px;line-height:1.25;font-family:Arial;-inkscape-font-specification:Arial;fill:#f3ba2f;fill-opacity:1;stroke:none"
         x="178.62161"
         y="126.70699"
         id="text4003"><tspan
           id="tspan4001"
           x="178.62161"
           y="126.70699"
           style="font-style:normal;font-variant:normal;font-weight:bold;font-stretch:normal;font-size:64px;font-family:Arial;-inkscape-font-specification:'Arial Bold';fill:#f3ba2f;fill-opacity:1"
           sodipodi:role="line">PARRAINAGE</tspan></text>
    </g>
  </g>
</svg>
